<svg width="308" height="228" viewBox="0 0 308 228" fill="none" xmlns="http://www.w3.org/2000/svg">
<g filter="url(#filter0_d_122_64)">
<path d="M40.4692 83.6154V142.601C40.4692 145.689 41.9347 148.192 43.7425 148.192H248.333C250.141 148.192 251.606 145.689 251.606 142.601V83.6154C251.606 80.5274 250.141 78.024 248.333 78.024H43.7425C41.9347 78.024 40.4692 80.5274 40.4692 83.6154Z" fill="#232323"/>
<path d="M40.4692 83.6154V142.601C40.4692 145.689 41.9347 148.192 43.7425 148.192H248.333C250.141 148.192 251.606 145.689 251.606 142.601V83.6154C251.606 80.5274 250.141 78.024 248.333 78.024H43.7425C41.9347 78.024 40.4692 80.5274 40.4692 83.6154Z" stroke="black" stroke-opacity="0.05" stroke-width="1.02582"/>
</g>
<g filter="url(#filter1_d_122_64)">
<path d="M113.259 19.0718V75.0187C113.259 76.7154 114.948 78.0908 117.031 78.0908H287.73C289.814 78.0908 291.503 76.7154 291.503 75.0187V19.0718C291.503 17.3751 289.814 15.9997 287.73 15.9997H117.031C114.948 15.9997 113.259 17.3751 113.259 19.0718Z" fill="#232323"/>
<path d="M113.259 19.0718V75.0187C113.259 76.7154 114.948 78.0908 117.031 78.0908H287.73C289.814 78.0908 291.503 76.7154 291.503 75.0187V19.0718C291.503 17.3751 289.814 15.9997 287.73 15.9997H117.031C114.948 15.9997 113.259 17.3751 113.259 19.0718Z" stroke="black" stroke-opacity="0.05" stroke-width="1.02581"/>
</g>
<g filter="url(#filter2_d_122_64)">
<path d="M17 150.901V206.848C17 208.545 18.6889 209.92 20.7722 209.92H191.471C193.554 209.92 195.243 208.545 195.243 206.848V150.901C195.243 149.204 193.554 147.829 191.471 147.829H20.7722C18.6889 147.829 17 149.204 17 150.901Z" fill="#232323"/>
<path d="M17 150.901V206.848C17 208.545 18.6889 209.92 20.7722 209.92H191.471C193.554 209.92 195.243 208.545 195.243 206.848V150.901C195.243 149.204 193.554 147.829 191.471 147.829H20.7722C18.6889 147.829 17 149.204 17 150.901Z" stroke="black" stroke-opacity="0.05" stroke-width="1.02581"/>
</g>
<path opacity="0.885" d="M221.839 51.0801H261.935C263.046 51.0801 263.947 49.6884 263.947 47.9717C263.947 46.2551 263.046 44.8634 261.935 44.8634H221.839C220.728 44.8634 219.827 46.2551 219.827 47.9717C219.827 49.6884 220.728 51.0801 221.839 51.0801Z" fill="#CCCCCC"/>
<path d="M277.88 43.9932C275.722 43.9932 273.967 45.7556 273.967 47.9219C273.967 50.0882 275.722 51.8507 277.88 51.8507C280.038 51.8507 281.794 50.0882 281.794 47.9219C281.794 45.7556 280.038 43.9932 277.88 43.9932ZM277.88 51.2174C276.07 51.2174 274.598 49.7391 274.598 47.9218C274.598 46.1046 276.07 44.6263 277.88 44.6263C279.69 44.6263 281.163 46.1047 281.163 47.9219C281.163 49.7391 279.69 51.2174 277.88 51.2174Z" fill="#6AC259" stroke="#6AC259" stroke-width="1.88976"/>
<path d="M279.128 46.8388L277.301 48.6727L276.633 48.0017C276.51 47.878 276.31 47.878 276.187 48.0017C276.064 48.1253 276.064 48.3257 276.187 48.4493L277.078 49.3442C277.14 49.4059 277.221 49.437 277.301 49.437C277.382 49.437 277.463 49.406 277.524 49.3442L279.574 47.2865C279.697 47.1628 279.697 46.9625 279.574 46.8388C279.451 46.7152 279.251 46.7152 279.128 46.8388Z" fill="#6AC259" stroke="#6AC259" stroke-width="0.755903"/>
<g filter="url(#filter3_d_122_64)">
<path d="M156.198 29.9971H133.667C130.787 29.9971 128.453 32.2119 128.453 34.9441V58.8621C128.453 61.5943 130.787 63.8091 133.667 63.8091H156.198C159.078 63.8091 161.413 61.5943 161.413 58.8621V34.9441C161.413 32.2119 159.078 29.9971 156.198 29.9971Z" fill="#232323"/>
</g>
<path d="M144.521 47.5418C147.766 47.5418 150.397 44.5152 150.397 40.7816C150.397 35.6042 147.766 34.0215 144.521 34.0215C141.275 34.0215 138.644 35.6042 138.644 40.7816C138.644 44.5152 141.275 47.5418 144.521 47.5418Z" fill="#808080"/>
<path d="M157.498 57.4921L154.533 50.928C154.397 50.6276 154.159 50.3785 153.862 50.2268L149.261 47.8727C149.16 47.8209 149.037 47.8309 148.946 47.8988C147.644 48.8662 146.114 49.3775 144.521 49.3775C142.927 49.3775 141.397 48.8662 140.096 47.8988C140.004 47.8309 139.881 47.8209 139.78 47.8727L135.179 50.2268C134.882 50.3785 134.644 50.6275 134.508 50.928L131.544 57.4921C131.339 57.9446 131.381 58.4624 131.656 58.8775C131.93 59.2925 132.395 59.5401 132.898 59.5401H156.143C156.646 59.5401 157.111 59.2923 157.386 58.8774C157.66 58.4624 157.702 57.9444 157.498 57.4921Z" fill="#808080"/>
<g filter="url(#filter4_d_122_64)">
<path d="M201.847 30.0156H179.316C176.436 30.0156 174.101 32.2305 174.101 34.9627V58.8806C174.101 61.6128 176.436 63.8277 179.316 63.8277H201.847C204.727 63.8277 207.062 61.6128 207.062 58.8806V34.9627C207.062 32.2305 204.727 30.0156 201.847 30.0156Z" fill="#232323"/>
</g>
<path d="M190.169 47.5604C193.415 47.5604 196.046 44.5337 196.046 40.8002C196.046 35.6228 193.415 34.04 190.169 34.04C186.924 34.04 184.293 35.6228 184.293 40.8002C184.293 44.5337 186.924 47.5604 190.169 47.5604Z" fill="#B3B3B3"/>
<path d="M203.146 57.5106L200.181 50.9465C200.046 50.6462 199.808 50.3971 199.511 50.2453L194.91 47.8912C194.808 47.8394 194.685 47.8495 194.594 47.9174C193.293 48.8848 191.763 49.3961 190.169 49.3961C188.576 49.3961 187.046 48.8848 185.744 47.9174C185.653 47.8495 185.53 47.8394 185.428 47.8912L180.827 50.2453C180.531 50.3971 180.293 50.6461 180.157 50.9465L177.192 57.5106C176.988 57.9632 177.03 58.4809 177.304 58.896C177.579 59.311 178.043 59.5587 178.547 59.5587H201.791C202.295 59.5587 202.76 59.3109 203.034 58.8959C203.309 58.4809 203.351 57.963 203.146 57.5106Z" fill="#B3B3B3"/>
<path opacity="0.885" d="M85.4373 163.747H128.218C129.256 163.747 130.097 162.691 130.097 161.387C130.097 160.084 129.256 159.028 128.218 159.028H85.4373C84.3992 159.028 83.5577 160.084 83.5577 161.387C83.5577 162.691 84.3992 163.747 85.4373 163.747Z" fill="#CCCCCC"/>
<path d="M85.8922 175.415H154.295C155.542 175.415 156.553 174.359 156.553 173.055C156.553 171.752 155.542 170.696 154.295 170.696H85.8922C84.6452 170.696 83.6343 171.752 83.6343 173.055C83.6343 174.359 84.6452 175.415 85.8922 175.415Z" fill="#CCCCCC" fill-opacity="0.433155"/>
<path opacity="0.885" d="M85.484 186.735H161.605C162.646 186.735 163.49 185.679 163.49 184.376C163.49 183.072 162.646 182.016 161.605 182.016H85.484C84.4431 182.016 83.5993 183.072 83.5993 184.376C83.5993 185.679 84.4431 186.735 85.484 186.735Z" fill="#CCCCCC"/>
<path opacity="0.885" d="M85.6285 198.192H161.374C162.518 198.192 163.446 197.136 163.446 195.833C163.446 194.529 162.518 193.473 161.374 193.473H85.6285C84.4839 193.473 83.5561 194.529 83.5561 195.833C83.5561 197.136 84.4839 198.192 85.6285 198.192Z" fill="#CCCCCC" fill-opacity="0.43"/>
<path opacity="0.885" d="M149.553 98.4131H225.684C226.722 98.4131 227.563 97.3566 227.563 96.0533C227.563 94.7501 226.722 93.6936 225.684 93.6936H149.553C148.514 93.6936 147.673 94.7501 147.673 96.0533C147.673 97.3566 148.514 98.4131 149.553 98.4131Z" fill="#CCCCCC"/>
<path d="M232.455 92.6211C230.819 92.6211 229.487 93.9591 229.487 95.6037C229.487 97.2483 230.819 98.5863 232.455 98.5863C234.092 98.5863 235.424 97.2483 235.424 95.6037C235.424 93.9591 234.092 92.6211 232.455 92.6211ZM232.455 98.1056C231.082 98.1056 229.966 96.9832 229.966 95.6036C229.966 94.224 231.082 93.1017 232.455 93.1017C233.828 93.1017 234.945 94.2241 234.945 95.6037C234.945 96.9832 233.828 98.1056 232.455 98.1056Z" fill="#6AC259" stroke="#6AC259" stroke-width="1.88976"/>
<path d="M233.402 94.7813L232.016 96.1736L231.509 95.6642C231.416 95.5702 231.264 95.5702 231.171 95.6642C231.078 95.758 231.078 95.9101 231.171 96.004L231.847 96.6833C231.894 96.7302 231.955 96.7538 232.016 96.7538C232.077 96.7538 232.139 96.7303 232.185 96.6833L233.74 95.1212C233.833 95.0273 233.833 94.8752 233.74 94.7813C233.646 94.6875 233.495 94.6875 233.402 94.7813Z" fill="#6AC259" stroke="#6AC259" stroke-width="0.755904"/>
<path d="M232.493 104.356C230.857 104.356 229.525 105.694 229.525 107.339C229.525 108.984 230.857 110.322 232.493 110.322C234.13 110.322 235.462 108.984 235.462 107.339C235.461 105.694 234.13 104.356 232.493 104.356ZM232.493 109.841C231.12 109.841 230.004 108.719 230.004 107.339C230.004 105.959 231.12 104.837 232.493 104.837C233.866 104.837 234.983 105.959 234.983 107.339C234.983 108.719 233.866 109.841 232.493 109.841Z" fill="#6AC259" stroke="#6AC259" stroke-width="1.88976"/>
<path d="M233.44 106.517L232.054 107.909L231.547 107.4C231.454 107.306 231.302 107.306 231.209 107.4C231.115 107.493 231.115 107.645 231.209 107.739L231.885 108.419C231.932 108.466 231.993 108.489 232.054 108.489C232.115 108.489 232.176 108.466 232.223 108.419L233.778 106.857C233.871 106.763 233.871 106.611 233.778 106.517C233.684 106.423 233.533 106.423 233.44 106.517Z" fill="#6AC259" stroke="#6AC259" stroke-width="0.755904"/>
<path d="M232.664 116.103C231.027 116.103 229.696 117.441 229.696 119.085C229.696 120.73 231.027 122.068 232.664 122.068C234.301 122.068 235.632 120.73 235.632 119.085C235.632 117.441 234.301 116.103 232.664 116.103ZM232.664 121.587C231.291 121.587 230.174 120.465 230.174 119.085C230.174 117.705 231.291 116.583 232.664 116.583C234.037 116.583 235.154 117.706 235.154 119.085C235.154 120.465 234.037 121.587 232.664 121.587Z" fill="#6AC259" stroke="#6AC259" stroke-width="1.88976"/>
<path d="M233.61 118.263L232.225 119.655L231.718 119.146C231.624 119.052 231.473 119.052 231.38 119.146C231.286 119.239 231.286 119.392 231.38 119.485L232.056 120.165C232.102 120.212 232.164 120.235 232.225 120.235C232.286 120.235 232.347 120.212 232.394 120.165L233.948 118.603C234.042 118.509 234.042 118.357 233.948 118.263C233.855 118.169 233.704 118.169 233.61 118.263Z" fill="#6AC259" stroke="#6AC259" stroke-width="0.755904"/>
<path d="M150.007 110.081H225.382C226.629 110.081 227.64 109.025 227.64 107.721C227.64 106.418 226.629 105.362 225.382 105.362H150.007C148.76 105.362 147.749 106.418 147.749 107.721C147.749 109.025 148.76 110.081 150.007 110.081Z" fill="#CCCCCC" fill-opacity="0.433155"/>
<path opacity="0.885" d="M149.599 121.402H225.72C226.761 121.402 227.605 120.346 227.605 119.043C227.605 117.739 226.761 116.683 225.72 116.683H149.599C148.558 116.683 147.715 117.739 147.715 119.043C147.715 120.346 148.558 121.402 149.599 121.402Z" fill="#CCCCCC"/>
<path opacity="0.885" d="M149.744 132.859H225.489C226.634 132.859 227.562 131.803 227.562 130.5C227.562 129.196 226.634 128.14 225.489 128.14H149.744C148.599 128.14 147.671 129.196 147.671 130.5C147.671 131.803 148.599 132.859 149.744 132.859Z" fill="#CCCCCC" fill-opacity="0.43"/>
<path d="M232.454 127.066C230.818 127.066 229.486 128.404 229.486 130.049C229.486 131.694 230.818 133.032 232.454 133.032C234.091 133.032 235.423 131.694 235.423 130.049C235.422 128.404 234.091 127.066 232.454 127.066ZM232.454 132.551C231.081 132.551 229.965 131.429 229.965 130.049C229.965 128.669 231.081 127.547 232.454 127.547C233.827 127.547 234.944 128.669 234.944 130.049C234.944 131.429 233.827 132.551 232.454 132.551Z" fill="#6AC259" stroke="#6AC259" stroke-width="1.88976"/>
<path d="M233.4 129.227L232.015 130.619L231.508 130.109C231.415 130.016 231.263 130.016 231.17 130.109C231.076 130.203 231.076 130.355 231.17 130.449L231.846 131.129C231.893 131.176 231.954 131.199 232.015 131.199C232.076 131.199 232.137 131.176 232.184 131.129L233.739 129.567C233.832 129.473 233.832 129.321 233.739 129.227C233.645 129.133 233.494 129.133 233.4 129.227Z" fill="#6AC259" stroke="#6AC259" stroke-width="0.755904"/>
<path d="M119.62 92.3457H60.0008C58.2548 92.3457 56.8394 93.7635 56.8394 95.5125V133.161C56.8394 134.91 58.2548 136.328 60.0008 136.328H119.62C121.366 136.328 122.781 134.91 122.781 133.161V95.5125C122.781 93.7635 121.366 92.3457 119.62 92.3457Z" stroke="#808080" stroke-width="3.77951" stroke-linecap="round" stroke-linejoin="round"/>
<path opacity="0.885" d="M81.6047 103.975H113.065C113.881 103.975 114.542 103.27 114.542 102.402C114.542 101.533 113.881 100.829 113.065 100.829H81.6047C80.7891 100.829 80.128 101.533 80.128 102.402C80.128 103.27 80.7891 103.975 81.6047 103.975Z" fill="#CCCCCC"/>
<path opacity="0.885" d="M82.315 110.798H104.92C105.932 110.798 106.752 110.094 106.752 109.225C106.752 108.356 105.932 107.652 104.92 107.652H82.315C81.303 107.652 80.4826 108.356 80.4826 109.225C80.4826 110.094 81.303 110.798 82.315 110.798Z" fill="#CCCCCC" fill-opacity="0.431373"/>
<path opacity="0.885" d="M61.4027 122.511H115.987C116.756 122.511 117.379 121.86 117.379 121.057C117.379 120.254 116.756 119.603 115.987 119.603H61.4027C60.634 119.603 60.0108 120.254 60.0108 121.057C60.0108 121.86 60.634 122.511 61.4027 122.511Z" fill="#CCCCCC"/>
<path d="M61.612 129.7H115.888C116.742 129.7 117.434 129.049 117.434 128.246C117.434 127.443 116.742 126.792 115.888 126.792H61.612C60.7581 126.792 60.0658 127.443 60.0658 128.246C60.0658 129.049 60.7581 129.7 61.612 129.7Z" fill="#CCCCCC" fill-opacity="0.433155"/>
<g filter="url(#filter5_d_122_64)">
<path d="M71.4894 97.2744H66.606C63.7259 97.2744 61.3911 99.4893 61.3911 102.221V108.033C61.3911 110.765 63.7259 112.98 66.606 112.98H71.4894C74.3695 112.98 76.7043 110.765 76.7043 108.033V102.221C76.7043 99.4893 74.3695 97.2744 71.4894 97.2744Z" fill="#232323"/>
</g>
<path d="M68.8561 105.424C70.3639 105.424 71.5864 104.018 71.5864 102.284C71.5864 99.8787 70.364 99.1436 68.8561 99.1436C67.3482 99.1436 66.1259 99.8787 66.1259 102.284C66.1259 104.018 67.3482 105.424 68.8561 105.424Z" fill="#B3B3B3"/>
<path d="M74.8851 110.046L73.5076 106.997C73.4446 106.857 73.334 106.742 73.1962 106.671L71.0585 105.578C71.0113 105.554 70.9542 105.558 70.9119 105.59C70.3072 106.039 69.5963 106.277 68.8561 106.277C68.1157 106.277 67.4049 106.039 66.8002 105.59C66.7577 105.558 66.7007 105.554 66.6535 105.578L64.5159 106.671C64.3781 106.742 64.2676 106.857 64.2045 106.997L62.827 110.046C62.7321 110.256 62.7515 110.497 62.8791 110.689C63.0066 110.882 63.2225 110.997 63.4565 110.997H74.2556C74.4896 110.997 74.7055 110.882 74.833 110.689C74.9606 110.497 74.9801 110.256 74.8851 110.046Z" fill="#B3B3B3"/>
<path d="M205.129 187.585C218.535 187.585 229.404 176.699 229.404 163.27C229.404 149.841 218.535 138.954 205.129 138.954C191.722 138.954 180.854 149.841 180.854 163.27C180.854 176.699 191.722 187.585 205.129 187.585Z" fill="#4CCC7D"/>
<path d="M201.949 172.967C201.403 172.967 200.881 172.748 200.496 172.356L192.975 164.7C192.186 163.896 192.196 162.606 192.999 161.814C193.802 161.026 195.092 161.034 195.881 161.838L201.89 167.955L214.321 154.241C215.081 153.406 216.369 153.347 217.199 154.103C218.032 154.86 218.094 156.15 217.337 156.987L203.457 172.299C203.08 172.716 202.55 172.957 201.99 172.969C201.976 172.967 201.963 172.967 201.949 172.967Z" fill="#232323"/>
<defs>
<filter id="filter0_d_122_64" x="21.6525" y="60.4272" width="248.771" height="107.802" filterUnits="userSpaceOnUse" color-interpolation-filters="sRGB">
<feFlood flood-opacity="0" result="BackgroundImageFix"/>
<feColorMatrix in="SourceAlpha" type="matrix" values="0 0 0 0 0 0 0 0 0 0 0 0 0 0 0 0 0 0 127 0" result="hardAlpha"/>
<feOffset dy="1.22025"/>
<feGaussianBlur stdDeviation="9.15191"/>
<feColorMatrix type="matrix" values="0 0 0 0 0 0 0 0 0 0.160784 0 0 0 0 0.439216 0 0 0 0.08 0"/>
<feBlend mode="normal" in2="BackgroundImageFix" result="effect1_dropShadow_122_64"/>
<feBlend mode="normal" in="SourceGraphic" in2="effect1_dropShadow_122_64" result="shape"/>
</filter>
<filter id="filter1_d_122_64" x="96.9262" y="0.720867" width="210.909" height="94.7575" filterUnits="userSpaceOnUse" color-interpolation-filters="sRGB">
<feFlood flood-opacity="0" result="BackgroundImageFix"/>
<feColorMatrix in="SourceAlpha" type="matrix" values="0 0 0 0 0 0 0 0 0 0 0 0 0 0 0 0 0 0 127 0" result="hardAlpha"/>
<feOffset dy="1.05468"/>
<feGaussianBlur stdDeviation="7.91007"/>
<feColorMatrix type="matrix" values="0 0 0 0 0 0 0 0 0 0.160784 0 0 0 0 0.439216 0 0 0 0.08 0"/>
<feBlend mode="normal" in2="BackgroundImageFix" result="effect1_dropShadow_122_64"/>
<feBlend mode="normal" in="SourceGraphic" in2="effect1_dropShadow_122_64" result="shape"/>
</filter>
<filter id="filter2_d_122_64" x="0.666985" y="132.55" width="210.909" height="94.7575" filterUnits="userSpaceOnUse" color-interpolation-filters="sRGB">
<feFlood flood-opacity="0" result="BackgroundImageFix"/>
<feColorMatrix in="SourceAlpha" type="matrix" values="0 0 0 0 0 0 0 0 0 0 0 0 0 0 0 0 0 0 127 0" result="hardAlpha"/>
<feOffset dy="1.05468"/>
<feGaussianBlur stdDeviation="7.91007"/>
<feColorMatrix type="matrix" values="0 0 0 0 0 0 0 0 0 0.160784 0 0 0 0 0.439216 0 0 0 0.08 0"/>
<feBlend mode="normal" in2="BackgroundImageFix" result="effect1_dropShadow_122_64"/>
<feBlend mode="normal" in="SourceGraphic" in2="effect1_dropShadow_122_64" result="shape"/>
</filter>
<filter id="filter3_d_122_64" x="123.162" y="26.0289" width="43.5425" height="44.3944" filterUnits="userSpaceOnUse" color-interpolation-filters="sRGB">
<feFlood flood-opacity="0" result="BackgroundImageFix"/>
<feColorMatrix in="SourceAlpha" type="matrix" values="0 0 0 0 0 0 0 0 0 0 0 0 0 0 0 0 0 0 127 0" result="hardAlpha"/>
<feOffset dy="1.32274"/>
<feGaussianBlur stdDeviation="2.64547"/>
<feColorMatrix type="matrix" values="0 0 0 0 0 0 0 0 0 0.160784 0 0 0 0 0.439216 0 0 0 0.102 0"/>
<feBlend mode="normal" in2="BackgroundImageFix" result="effect1_dropShadow_122_64"/>
<feBlend mode="normal" in="SourceGraphic" in2="effect1_dropShadow_122_64" result="shape"/>
</filter>
<filter id="filter4_d_122_64" x="168.81" y="26.0474" width="43.5425" height="44.3944" filterUnits="userSpaceOnUse" color-interpolation-filters="sRGB">
<feFlood flood-opacity="0" result="BackgroundImageFix"/>
<feColorMatrix in="SourceAlpha" type="matrix" values="0 0 0 0 0 0 0 0 0 0 0 0 0 0 0 0 0 0 127 0" result="hardAlpha"/>
<feOffset dy="1.32274"/>
<feGaussianBlur stdDeviation="2.64547"/>
<feColorMatrix type="matrix" values="0 0 0 0 0 0 0 0 0 0.160784 0 0 0 0 0.439216 0 0 0 0.102 0"/>
<feBlend mode="normal" in2="BackgroundImageFix" result="effect1_dropShadow_122_64"/>
<feBlend mode="normal" in="SourceGraphic" in2="effect1_dropShadow_122_64" result="shape"/>
</filter>
<filter id="filter5_d_122_64" x="58.9332" y="95.431" width="20.229" height="20.6218" filterUnits="userSpaceOnUse" color-interpolation-filters="sRGB">
<feFlood flood-opacity="0" result="BackgroundImageFix"/>
<feColorMatrix in="SourceAlpha" type="matrix" values="0 0 0 0 0 0 0 0 0 0 0 0 0 0 0 0 0 0 127 0" result="hardAlpha"/>
<feOffset dy="0.614471"/>
<feGaussianBlur stdDeviation="1.22894"/>
<feColorMatrix type="matrix" values="0 0 0 0 0 0 0 0 0 0.160784 0 0 0 0 0.439216 0 0 0 0.102 0"/>
<feBlend mode="normal" in2="BackgroundImageFix" result="effect1_dropShadow_122_64"/>
<feBlend mode="normal" in="SourceGraphic" in2="effect1_dropShadow_122_64" result="shape"/>
</filter>
</defs>
</svg>
