<svg width="1514" height="835" viewBox="0 0 1514 835" fill="none" xmlns="http://www.w3.org/2000/svg">
<g opacity="0.5">
<path opacity="0.5" d="M1 557.461L1512.9 557.461" stroke="black" stroke-opacity="0.5"/>
<path opacity="0.5" d="M1 532.5L1512.9 532.5" stroke="black" stroke-opacity="0.5"/>
<path opacity="0.5" d="M1 506.945L1512.9 506.945" stroke="black" stroke-opacity="0.5"/>
<path opacity="0.5" d="M1 481.984L1512.9 481.984" stroke="black" stroke-opacity="0.5"/>
<path opacity="0.5" d="M1 457.023L1512.9 457.023" stroke="black" stroke-opacity="0.5"/>
<path opacity="0.5" d="M1 431.468L1512.9 431.468" stroke="black" stroke-opacity="0.5"/>
<path opacity="0.5" d="M1 406.507L1512.9 406.507" stroke="black" stroke-opacity="0.5"/>
<path opacity="0.5" d="M1 380.952L1512.9 380.952" stroke="black" stroke-opacity="0.5"/>
<path opacity="0.5" d="M1 355.991L1512.9 355.991" stroke="black" stroke-opacity="0.5"/>
<path opacity="0.5" d="M1 330.435L1512.9 330.435" stroke="black" stroke-opacity="0.5"/>
<path opacity="0.5" d="M1 304.88L1512.9 304.88" stroke="black" stroke-opacity="0.5"/>
<path opacity="0.5" d="M1 279.919L1512.9 279.919" stroke="black" stroke-opacity="0.5"/>
<path opacity="0.5" d="M1 254.364L1512.9 254.364" stroke="black" stroke-opacity="0.5"/>
<path opacity="0.5" d="M1 228.809L1512.9 228.809" stroke="black" stroke-opacity="0.5"/>
<path opacity="0.5" d="M1 203.253L1512.9 203.253" stroke="black" stroke-opacity="0.5"/>
<path opacity="0.5" d="M1 178.292L1512.9 178.292" stroke="black" stroke-opacity="0.5"/>
<path opacity="0.5" d="M1 152.737L1512.9 152.737" stroke="black" stroke-opacity="0.5"/>
<path opacity="0.5" d="M1 127.182L1512.9 127.182" stroke="black" stroke-opacity="0.5"/>
<path opacity="0.5" d="M1 101.627L1512.9 101.627" stroke="black" stroke-opacity="0.5"/>
<path opacity="0.5" d="M1 76.6658L1512.9 76.6658" stroke="black" stroke-opacity="0.5"/>
<path opacity="0.5" d="M1 51.1106L1512.9 51.1106" stroke="black" stroke-opacity="0.5"/>
<path opacity="0.5" d="M1 25.5552L1512.9 25.5552" stroke="black" stroke-opacity="0.5"/>
<path opacity="0.5" d="M1 810.042L1512.9 810.042" stroke="black" stroke-opacity="0.5"/>
<path opacity="0.5" d="M1 784.487L1512.9 784.487" stroke="black" stroke-opacity="0.5"/>
<path opacity="0.5" d="M1 759.526L1512.9 759.526" stroke="black" stroke-opacity="0.5"/>
<path opacity="0.5" d="M1 733.971L1512.9 733.971" stroke="black" stroke-opacity="0.5"/>
<path opacity="0.5" d="M1 709.01L1512.9 709.01" stroke="black" stroke-opacity="0.5"/>
<path opacity="0.5" d="M1 683.454L1512.9 683.454" stroke="black" stroke-opacity="0.5"/>
<path opacity="0.5" d="M1 658.493L1512.9 658.493" stroke="black" stroke-opacity="0.5"/>
<path opacity="0.5" d="M1 633.533L1512.9 633.533" stroke="black" stroke-opacity="0.5"/>
<path opacity="0.5" d="M1 607.977L1512.9 607.977" stroke="black" stroke-opacity="0.5"/>
<path opacity="0.5" d="M1 583.016L1512.9 583.016" stroke="black" stroke-opacity="0.5"/>
<path opacity="0.5" d="M252.863 835.003L252.863 -2.67625e-05" stroke="black" stroke-opacity="0.5"/>
<path opacity="0.5" d="M227.675 835.003L227.675 -2.67625e-05" stroke="black" stroke-opacity="0.5"/>
<path opacity="0.5" d="M202.484 835.003L202.484 -2.67625e-05" stroke="black" stroke-opacity="0.5"/>
<path opacity="0.5" d="M177.301 835.003L177.301 -2.67625e-05" stroke="black" stroke-opacity="0.5"/>
<path opacity="0.5" d="M152.123 835.003L152.123 -2.67625e-05" stroke="black" stroke-opacity="0.5"/>
<path opacity="0.5" d="M126.933 835.003L126.933 -2.67625e-05" stroke="black" stroke-opacity="0.5"/>
<path opacity="0.5" d="M101.75 835.003L101.75 -2.67625e-05" stroke="black" stroke-opacity="0.5"/>
<path opacity="0.5" d="M76.5596 835.003L76.5596 -2.67625e-05" stroke="black" stroke-opacity="0.5"/>
<path opacity="0.5" d="M51.3732 835.003L51.3732 -2.67625e-05" stroke="black" stroke-opacity="0.5"/>
<path opacity="0.5" d="M26.1851 835.003L26.1851 -2.67625e-05" stroke="black" stroke-opacity="0.5"/>
<path opacity="0.5" d="M1.00012 835.003L1.00012 -2.67625e-05" stroke="black" stroke-opacity="0.5"/>
<path opacity="0.5" d="M479.542 835.003L479.542 -2.67625e-05" stroke="black" stroke-opacity="0.5"/>
<path opacity="0.5" d="M429.169 835.003L429.169 -2.67625e-05" stroke="black" stroke-opacity="0.5"/>
<path opacity="0.5" d="M454.294 835.003L454.294 -2.67625e-05" stroke="black" stroke-opacity="0.5"/>
<path opacity="0.5" d="M504.546 835.003L504.546 -2.67625e-05" stroke="black" stroke-opacity="0.5"/>
<path opacity="0.5" d="M529.844 835.003V-2.67625e-05" stroke="black" stroke-opacity="0.5"/>
<path opacity="0.5" d="M555.141 835.003V-2.67625e-05" stroke="black" stroke-opacity="0.5"/>
<path opacity="0.5" d="M580.44 835.003V-2.67625e-05" stroke="black" stroke-opacity="0.5"/>
<path opacity="0.5" d="M605.738 835.003V-2.67625e-05" stroke="black" stroke-opacity="0.5"/>
<path opacity="0.5" d="M631.036 835.003V-2.67625e-05" stroke="black" stroke-opacity="0.5"/>
<path opacity="0.5" d="M656.333 835.003V-2.67625e-05" stroke="black" stroke-opacity="0.5"/>
<path opacity="0.5" d="M681.63 835.003V-2.67625e-05" stroke="black" stroke-opacity="0.5"/>
<path opacity="0.5" d="M706.928 835.003V-2.67625e-05" stroke="black" stroke-opacity="0.5"/>
<path opacity="0.5" d="M732.225 835.003V-2.67625e-05" stroke="black" stroke-opacity="0.5"/>
<path opacity="0.5" d="M757.528 835.003V-2.67625e-05" stroke="black" stroke-opacity="0.5"/>
<path opacity="0.5" d="M782.826 835.003V-2.67625e-05" stroke="black" stroke-opacity="0.5"/>
<path opacity="0.5" d="M808.123 835.003V-2.67625e-05" stroke="black" stroke-opacity="0.5"/>
<path opacity="0.5" d="M403.983 835.003L403.983 -2.67625e-05" stroke="black" stroke-opacity="0.5"/>
<path opacity="0.5" d="M378.798 835.003L378.798 -2.67625e-05" stroke="black" stroke-opacity="0.5"/>
<path opacity="0.5" d="M353.609 835.003L353.609 -2.67625e-05" stroke="black" stroke-opacity="0.5"/>
<path opacity="0.5" d="M328.423 835.003L328.423 -2.67625e-05" stroke="black" stroke-opacity="0.5"/>
<path opacity="0.5" d="M303.233 835.003L303.233 -2.67625e-05" stroke="black" stroke-opacity="0.5"/>
<path opacity="0.5" d="M278.048 835.003L278.048 -2.67625e-05" stroke="black" stroke-opacity="0.5"/>
<path opacity="0.5" d="M1084.23 835.003V-2.67625e-05" stroke="black" stroke-opacity="0.5"/>
<path opacity="0.5" d="M1059.04 835.003V-2.67625e-05" stroke="black" stroke-opacity="0.5"/>
<path opacity="0.5" d="M1033.85 835.003V-2.67625e-05" stroke="black" stroke-opacity="0.5"/>
<path opacity="0.5" d="M1008.67 835.003V-2.67625e-05" stroke="black" stroke-opacity="0.5"/>
<path opacity="0.5" d="M983.495 835.003V-2.67625e-05" stroke="black" stroke-opacity="0.5"/>
<path opacity="0.5" d="M958.304 835.003V-2.67625e-05" stroke="black" stroke-opacity="0.5"/>
<path opacity="0.5" d="M933.12 835.003V-2.67625e-05" stroke="black" stroke-opacity="0.5"/>
<path opacity="0.5" d="M907.929 835.003V-2.67625e-05" stroke="black" stroke-opacity="0.5"/>
<path opacity="0.5" d="M882.745 835.003V-2.67625e-05" stroke="black" stroke-opacity="0.5"/>
<path opacity="0.5" d="M857.554 835.003V-2.67625e-05" stroke="black" stroke-opacity="0.5"/>
<path opacity="0.5" d="M832.37 835.003V-2.67625e-05" stroke="black" stroke-opacity="0.5"/>
<path opacity="0.5" d="M1310.91 835.003V-2.67625e-05" stroke="black" stroke-opacity="0.5"/>
<path opacity="0.5" d="M1260.54 835.003V-2.67625e-05" stroke="black" stroke-opacity="0.5"/>
<path opacity="0.5" d="M1285.66 835.003V-2.67625e-05" stroke="black" stroke-opacity="0.5"/>
<path opacity="0.5" d="M1335.91 835.003V-2.67625e-05" stroke="black" stroke-opacity="0.5"/>
<path opacity="0.5" d="M1361.22 835.003V-2.67625e-05" stroke="black" stroke-opacity="0.5"/>
<path opacity="0.5" d="M1386.51 835.003V-2.67625e-05" stroke="black" stroke-opacity="0.5"/>
<path opacity="0.5" d="M1411.81 835.003V-2.67625e-05" stroke="black" stroke-opacity="0.5"/>
<path opacity="0.5" d="M1437.11 835.003V-2.67625e-05" stroke="black" stroke-opacity="0.5"/>
<path opacity="0.5" d="M1462.41 835.003V-2.67625e-05" stroke="black" stroke-opacity="0.5"/>
<path opacity="0.5" d="M1487.7 835.003V-2.67625e-05" stroke="black" stroke-opacity="0.5"/>
<path opacity="0.5" d="M1513 835.003V-2.67625e-05" stroke="black" stroke-opacity="0.5"/>
<path opacity="0.5" d="M1235.35 835.003V-2.67625e-05" stroke="black" stroke-opacity="0.5"/>
<path opacity="0.5" d="M1210.17 835.003V-2.67625e-05" stroke="black" stroke-opacity="0.5"/>
<path opacity="0.5" d="M1184.98 835.003V-2.67625e-05" stroke="black" stroke-opacity="0.5"/>
<path opacity="0.5" d="M1159.79 835.003V-2.67625e-05" stroke="black" stroke-opacity="0.5"/>
<path opacity="0.5" d="M1134.6 835.003V-2.67625e-05" stroke="black" stroke-opacity="0.5"/>
<path opacity="0.5" d="M1109.42 835.003V-2.67625e-05" stroke="black" stroke-opacity="0.5"/>
</g>
</svg>
