<svg width="440" height="835" viewBox="0 0 440 835" fill="none" xmlns="http://www.w3.org/2000/svg">
<g opacity="0.5">
<path opacity="0.5" d="M-590 557.461L921.905 557.461" stroke="#9C9C9C" stroke-opacity="0.5"/>
<path opacity="0.5" d="M-590 532.5L921.905 532.5" stroke="#9C9C9C" stroke-opacity="0.5"/>
<path opacity="0.5" d="M-590 506.945L921.905 506.945" stroke="#9C9C9C" stroke-opacity="0.5"/>
<path opacity="0.5" d="M-590 481.984L921.905 481.984" stroke="#9C9C9C" stroke-opacity="0.5"/>
<path opacity="0.5" d="M-590 457.023L921.905 457.023" stroke="#9C9C9C" stroke-opacity="0.5"/>
<path opacity="0.5" d="M-590 431.468L921.905 431.468" stroke="#9C9C9C" stroke-opacity="0.5"/>
<path opacity="0.5" d="M-590 406.507L921.905 406.507" stroke="#9C9C9C" stroke-opacity="0.5"/>
<path opacity="0.5" d="M-590 380.952L921.905 380.952" stroke="#9C9C9C" stroke-opacity="0.5"/>
<path opacity="0.5" d="M-590 355.991L921.905 355.991" stroke="#9C9C9C" stroke-opacity="0.5"/>
<path opacity="0.5" d="M-590 330.435L921.905 330.435" stroke="#9C9C9C" stroke-opacity="0.5"/>
<path opacity="0.5" d="M-590 304.88L921.905 304.88" stroke="#9C9C9C" stroke-opacity="0.5"/>
<path opacity="0.5" d="M-590 279.919L921.905 279.919" stroke="#9C9C9C" stroke-opacity="0.5"/>
<path opacity="0.5" d="M-590 254.364L921.905 254.364" stroke="#9C9C9C" stroke-opacity="0.5"/>
<path opacity="0.5" d="M-590 228.809L921.905 228.809" stroke="#9C9C9C" stroke-opacity="0.5"/>
<path opacity="0.5" d="M-590 203.253L921.905 203.253" stroke="#9C9C9C" stroke-opacity="0.5"/>
<path opacity="0.5" d="M-590 178.292L921.905 178.292" stroke="#9C9C9C" stroke-opacity="0.5"/>
<path opacity="0.5" d="M-590 152.737L921.905 152.737" stroke="#9C9C9C" stroke-opacity="0.5"/>
<path opacity="0.5" d="M-590 127.182L921.905 127.182" stroke="#9C9C9C" stroke-opacity="0.5"/>
<path opacity="0.5" d="M-590 101.627L921.905 101.627" stroke="#9C9C9C" stroke-opacity="0.5"/>
<path opacity="0.5" d="M-590 76.6657L921.905 76.6657" stroke="#9C9C9C" stroke-opacity="0.5"/>
<path opacity="0.5" d="M-590 51.1105L921.905 51.1105" stroke="#9C9C9C" stroke-opacity="0.5"/>
<path opacity="0.5" d="M-590 25.5552L921.905 25.5552" stroke="#9C9C9C" stroke-opacity="0.5"/>
<path opacity="0.5" d="M-590 810.042L921.905 810.042" stroke="#9C9C9C" stroke-opacity="0.5"/>
<path opacity="0.5" d="M-590 784.487L921.905 784.487" stroke="#9C9C9C" stroke-opacity="0.5"/>
<path opacity="0.5" d="M-590 759.526L921.905 759.526" stroke="#9C9C9C" stroke-opacity="0.5"/>
<path opacity="0.5" d="M-590 733.971L921.905 733.971" stroke="#9C9C9C" stroke-opacity="0.5"/>
<path opacity="0.5" d="M-590 709.01L921.905 709.01" stroke="#9C9C9C" stroke-opacity="0.5"/>
<path opacity="0.5" d="M-590 683.454L921.905 683.454" stroke="#9C9C9C" stroke-opacity="0.5"/>
<path opacity="0.5" d="M-590 658.493L921.905 658.493" stroke="#9C9C9C" stroke-opacity="0.5"/>
<path opacity="0.5" d="M-590 633.533L921.905 633.533" stroke="#9C9C9C" stroke-opacity="0.5"/>
<path opacity="0.5" d="M-590 607.977L921.905 607.977" stroke="#9C9C9C" stroke-opacity="0.5"/>
<path opacity="0.5" d="M-590 583.016L921.905 583.016" stroke="#9C9C9C" stroke-opacity="0.5"/>
<path opacity="0.5" d="M14.7382 835.003L14.7382 -2.67625e-05" stroke="#9C9C9C" stroke-opacity="0.5"/>
<path opacity="0.5" d="M40.0356 835.003L40.0356 -2.67625e-05" stroke="#9C9C9C" stroke-opacity="0.5"/>
<path opacity="0.5" d="M65.333 835.003L65.333 -2.67625e-05" stroke="#9C9C9C" stroke-opacity="0.5"/>
<path opacity="0.5" d="M90.6304 835.003L90.6304 -2.67625e-05" stroke="#9C9C9C" stroke-opacity="0.5"/>
<path opacity="0.5" d="M115.928 835.003L115.928 -2.67625e-05" stroke="#9C9C9C" stroke-opacity="0.5"/>
<path opacity="0.5" d="M141.225 835.003L141.225 -2.67625e-05" stroke="#9C9C9C" stroke-opacity="0.5"/>
<path opacity="0.5" d="M166.528 835.003L166.528 -2.67625e-05" stroke="#9C9C9C" stroke-opacity="0.5"/>
<path opacity="0.5" d="M191.826 835.003L191.826 -2.67625e-05" stroke="#9C9C9C" stroke-opacity="0.5"/>
<path opacity="0.5" d="M217.123 835.003L217.123 -2.67625e-05" stroke="#9C9C9C" stroke-opacity="0.5"/>
<path opacity="0.5" d="M417.673 835.003L417.673 -2.67625e-05" stroke="#9C9C9C" stroke-opacity="0.5"/>
<path opacity="0.5" d="M392.495 835.003L392.495 -2.67625e-05" stroke="#9C9C9C" stroke-opacity="0.5"/>
<path opacity="0.5" d="M367.304 835.003L367.304 -2.67625e-05" stroke="#9C9C9C" stroke-opacity="0.5"/>
<path opacity="0.5" d="M342.12 835.003L342.12 -2.67625e-05" stroke="#9C9C9C" stroke-opacity="0.5"/>
<path opacity="0.5" d="M316.929 835.003L316.929 -2.67625e-05" stroke="#9C9C9C" stroke-opacity="0.5"/>
<path opacity="0.5" d="M291.745 835.003L291.745 -2.67625e-05" stroke="#9C9C9C" stroke-opacity="0.5"/>
<path opacity="0.5" d="M266.554 835.003L266.554 -2.67625e-05" stroke="#9C9C9C" stroke-opacity="0.5"/>
<path opacity="0.5" d="M241.37 835.003L241.37 -2.67625e-05" stroke="#9C9C9C" stroke-opacity="0.5"/>
</g>
</svg>
