<svg width="37" height="37" viewBox="0 0 37 37" fill="none" xmlns="http://www.w3.org/2000/svg">
<path d="M32.1324 26.4314C31.6194 27.6163 31.0123 28.7071 30.3089 29.7099C29.35 31.077 28.5649 32.0233 27.9599 32.5488C27.022 33.4113 26.0171 33.853 24.941 33.8782C24.1685 33.8782 23.2368 33.6583 22.1524 33.2124C21.0644 32.7686 20.0645 32.5488 19.1502 32.5488C18.1914 32.5488 17.163 32.7686 16.0631 33.2124C14.9614 33.6583 14.074 33.8907 13.3955 33.9138C12.3636 33.9577 11.335 33.5034 10.3083 32.5488C9.65303 31.9772 8.8334 30.9974 7.85153 29.6094C6.79805 28.1272 5.93195 26.4084 5.25343 24.4488C4.52675 22.3322 4.16248 20.2826 4.16248 18.2983C4.16248 16.0254 4.65362 14.0649 5.63738 12.4221C6.41053 11.1026 7.4391 10.0616 8.72642 9.29749C10.0137 8.53335 11.4047 8.14394 12.9026 8.11903C13.7223 8.11903 14.7971 8.37256 16.1328 8.87083C17.4647 9.37077 18.3199 9.6243 18.6949 9.6243C18.9752 9.6243 19.9253 9.32785 21.5358 8.73684C23.0589 8.18875 24.3443 7.9618 25.3974 8.0512C28.2509 8.28149 30.3947 9.40636 31.8204 11.4329C29.2684 12.9792 28.006 15.145 28.0311 17.9234C28.0541 20.0875 28.8392 21.8884 30.3821 23.3183C31.0814 23.9819 31.8623 24.4948 32.7311 24.8591C32.5427 25.4055 32.3438 25.9289 32.1324 26.4314ZM25.5879 0.678526C25.5879 2.37475 24.9682 3.9585 23.733 5.42441C22.2424 7.16709 20.4394 8.17409 18.4843 8.01519C18.4594 7.8117 18.4449 7.59753 18.4449 7.37247C18.4449 5.7441 19.1538 4.00142 20.4126 2.57655C21.0411 1.85511 21.8404 1.25524 22.8098 0.776713C23.777 0.305328 24.6919 0.0446414 25.5523 0C25.5774 0.226758 25.5879 0.453531 25.5879 0.678504V0.678526Z" fill="#F2F2F2"/>
</svg>
