<svg width="34" height="33" viewBox="0 0 34 33" fill="none" xmlns="http://www.w3.org/2000/svg">
<g clip-path="url(#clip0_670_805)">
<path d="M32.7163 13.6315L18.848 13.6309C18.2356 13.6309 17.7393 14.1126 17.7393 14.707V19.007C17.7393 19.6012 18.2356 20.0831 18.848 20.0831H26.6577C25.8026 22.2372 24.2064 24.0411 22.17 25.1874L25.5001 30.7825C30.8419 27.7839 34.0001 22.5227 34.0001 16.6331C34.0001 15.7945 33.9364 15.195 33.809 14.52C33.7122 14.0071 33.2535 13.6315 32.7163 13.6315Z" fill="#167EE6"/>
<path d="M17.0001 26.5436C13.1781 26.5436 9.84159 24.5168 8.04962 21.5176L2.28516 24.7424C5.21865 29.6771 10.714 33.0001 17.0001 33.0001C20.0838 33.0001 22.9935 32.1942 25.5001 30.7899V30.7822L22.17 25.187C20.6468 26.0445 18.8841 26.5436 17.0001 26.5436Z" fill="#12B347"/>
<path d="M25.5 30.7894V30.7817L22.1699 25.1865C20.6467 26.0439 18.8841 26.5431 17 26.5431V32.9996C20.0837 32.9996 22.9936 32.1937 25.5 30.7894Z" fill="#0F993E"/>
<path d="M6.65218 16.5001C6.65218 14.6717 7.1663 12.961 8.04957 11.4827L2.28511 8.25781C0.830211 10.683 0 13.4995 0 16.5001C0 19.5008 0.830211 22.3173 2.28511 24.7425L8.04957 21.5176C7.1663 20.0393 6.65218 18.3286 6.65218 16.5001Z" fill="#FFD500"/>
<path d="M17.0001 6.45653C19.4923 6.45653 21.7816 7.31607 23.5698 8.74584C24.0109 9.09853 24.652 9.07307 25.0561 8.68087L28.1951 5.63417C28.6536 5.18919 28.6209 4.4608 28.1312 4.04843C25.1353 1.5258 21.2372 0 17.0001 0C10.714 0 5.21865 3.32301 2.28516 8.25767L8.04962 11.4825C9.84159 8.48332 13.1781 6.45653 17.0001 6.45653Z" fill="#FF4B26"/>
<path d="M23.5697 8.74584C24.0108 9.09853 24.6521 9.07307 25.0561 8.68087L28.1951 5.63417C28.6535 5.18919 28.6208 4.4608 28.1312 4.04843C25.1352 1.52573 21.2372 0 17 0V6.45653C19.4922 6.45653 21.7816 7.31607 23.5697 8.74584Z" fill="#D93F21"/>
</g>
<defs>
<clipPath id="clip0_670_805">
<rect width="34" height="33" fill="white"/>
</clipPath>
</defs>
</svg>
