<svg width="43" height="43" viewBox="0 0 43 43" fill="none" xmlns="http://www.w3.org/2000/svg">
<path fill-rule="evenodd" clip-rule="evenodd" d="M43 21.5C43 33.374 33.374 43 21.5 43C9.62587 43 0 33.374 0 21.5C0 9.62587 9.62587 0 21.5 0C33.374 0 43 9.62587 43 21.5ZM30.1651 14.9848C30.7949 15.6145 30.7949 16.6355 30.1651 17.2651L19.4151 28.0151C18.7854 28.6449 17.7646 28.6449 17.1348 28.0151L12.8348 23.7151C12.2051 23.0854 12.2051 22.0646 12.8348 21.4349C13.4645 20.8051 14.4855 20.8051 15.1152 21.4349L18.275 24.5945L23.0798 19.7897L27.8849 14.9848C28.5146 14.3551 29.5354 14.3551 30.1651 14.9848Z" fill="#6AC259"/>
</svg>
