<svg width="43" height="43" viewBox="0 0 43 43" fill="none" xmlns="http://www.w3.org/2000/svg">
<path opacity="0.5" d="M42.5 21.25C42.5 32.9859 32.9859 42.5 21.25 42.5C9.51394 42.5 0 32.9859 0 21.25C0 9.51394 9.51394 0 21.25 0C32.9859 0 42.5 9.51394 42.5 21.25Z" fill="#743DFF"/>
<path d="M21.25 33.4687C22.1302 33.4687 22.8438 32.7552 22.8438 31.875V19.125C22.8438 18.2448 22.1302 17.5312 21.25 17.5312C20.3698 17.5312 19.6562 18.2448 19.6562 19.125V31.875C19.6562 32.7552 20.3698 33.4687 21.25 33.4687Z" fill="white"/>
<path d="M21.25 10.625C22.4236 10.625 23.375 11.5764 23.375 12.75C23.375 13.9236 22.4236 14.875 21.25 14.875C20.0764 14.875 19.125 13.9236 19.125 12.75C19.125 11.5764 20.0764 10.625 21.25 10.625Z" fill="white"/>
</svg>
