<svg width="27" height="27" viewBox="0 0 27 27" fill="none" xmlns="http://www.w3.org/2000/svg">
<g clip-path="url(#clip0_12_1577)">
<path d="M13.5 27C20.9558 27 27 20.9558 27 13.5C27 6.04416 20.9558 0 13.5 0C6.04416 0 0 6.04416 0 13.5C0 20.9558 6.04416 27 13.5 27Z" fill="#F3BA2F"/>
<path d="M10.6759 12.3398L13.4998 9.51591L16.3237 12.3425L17.9664 10.6998L13.4998 6.23056L9.0332 10.6972L10.6759 12.3398Z" fill="white"/>
<path d="M6.23096 13.4987L7.8735 11.8561L9.5161 13.4986L7.87356 15.1412L6.23096 13.4987Z" fill="white"/>
<path d="M10.6761 14.6602L13.5 17.4841L16.3239 14.6575L17.9692 16.3002H17.9666L13.5 20.7694L9.0334 16.3028L9.03076 16.3002L10.6761 14.6602Z" fill="white"/>
<path d="M17.4834 13.5015L19.1259 11.8589L20.7685 13.5014L19.126 15.144L17.4834 13.5015Z" fill="white"/>
<path d="M15.1665 13.5L13.5001 11.831L12.2687 13.0649L12.1264 13.2047L11.8337 13.4974L11.8311 13.5L11.8337 13.5026L13.5001 15.169L15.1665 13.5Z" fill="white"/>
</g>
<defs>
<clipPath id="clip0_12_1577">
<rect width="27" height="27" fill="white"/>
</clipPath>
</defs>
</svg>
