<svg width="29" height="29" viewBox="0 0 29 29" fill="none" xmlns="http://www.w3.org/2000/svg">
<g clip-path="url(#clip0_12_984)">
<path d="M27.1648 22.6402L22.5722 18.0475L19.0396 16.5881C20.2159 14.9154 20.846 12.9198 20.8438 10.875C20.8438 5.3782 16.3718 0.90625 10.875 0.90625C5.3782 0.90625 0.90625 5.3782 0.90625 10.875C0.90625 16.3718 5.3782 20.8438 10.875 20.8438C12.9376 20.8461 14.9497 20.205 16.6308 19.0099L18.0864 22.5329L22.6789 27.1258C22.9734 27.4204 23.3231 27.654 23.7079 27.8134C24.0928 27.9729 24.5052 28.0549 24.9218 28.0549C25.3383 28.0549 25.7508 27.9729 26.1356 27.8135C26.5205 27.6541 26.8702 27.4205 27.1647 27.126C27.4593 26.8314 27.6929 26.4818 27.8523 26.0969C28.0117 25.7121 28.0938 25.2996 28.0938 24.8831C28.0938 24.4665 28.0118 24.0541 27.8524 23.6692C27.693 23.2844 27.4594 22.9347 27.1648 22.6402ZM2.71875 10.875C2.71875 6.37773 6.37773 2.71875 10.875 2.71875C15.3723 2.71875 19.0312 6.37773 19.0312 10.875C19.0312 15.3723 15.3723 19.0313 10.875 19.0313C6.37773 19.0313 2.71875 15.3723 2.71875 10.875ZM25.8831 25.8442C25.628 26.0988 25.2823 26.2417 24.9219 26.2417C24.5615 26.2417 24.2158 26.0988 23.9606 25.8442L19.6235 21.5071L18.2702 18.2313L21.5461 19.5847L25.8832 23.9218C26.1378 24.1769 26.2807 24.5226 26.2807 24.883C26.2807 25.2434 26.1377 25.5891 25.8831 25.8442Z" fill="black"/>
</g>
<defs>
<clipPath id="clip0_12_984">
<rect width="29" height="29" fill="white"/>
</clipPath>
</defs>
</svg>
