<svg width="41" height="41" viewBox="0 0 41 41" fill="none" xmlns="http://www.w3.org/2000/svg">
<rect x="0.817383" y="0.303711" width="40" height="40" rx="20" fill="url(#paint0_linear_673_2156)"/>
<path d="M30.8193 20.3047C30.8193 25.8275 26.3422 30.3047 20.8193 30.3047C15.2965 30.3047 10.8193 25.8275 10.8193 20.3047C10.8193 14.7818 15.2965 10.3047 20.8193 10.3047C26.3422 10.3047 30.8193 14.7818 30.8193 20.3047ZM15.3193 20.3047C15.3193 23.3423 17.7818 25.8047 20.8193 25.8047C23.8569 25.8047 26.3193 23.3423 26.3193 20.3047C26.3193 17.2671 23.8569 14.8047 20.8193 14.8047C17.7818 14.8047 15.3193 17.2671 15.3193 20.3047Z" fill="black"/>
<defs>
<linearGradient id="paint0_linear_673_2156" x1="20.8174" y1="0.303711" x2="20.8174" y2="40.3037" gradientUnits="userSpaceOnUse">
<stop stop-color="#130D20"/>
<stop offset="1" stop-color="#511FBA"/>
</linearGradient>
</defs>
</svg>
