<svg width="43" height="43" viewBox="0 0 43 43" fill="none" xmlns="http://www.w3.org/2000/svg">
<path fill-rule="evenodd" clip-rule="evenodd" d="M39.4163 21.4997C39.4163 31.3947 31.3947 39.4163 21.4997 39.4163C11.6046 39.4163 3.58301 31.3947 3.58301 21.4997C3.58301 11.6046 11.6046 3.58301 21.4997 3.58301C31.3947 3.58301 39.4163 11.6046 39.4163 21.4997ZM28.7206 16.0703C29.2454 16.5951 29.2454 17.4459 28.7206 17.9706L19.7623 26.929C19.2375 27.4537 18.3868 27.4537 17.862 26.929L14.2787 23.3456C13.7539 22.8208 13.7539 21.9702 14.2787 21.4454C14.8034 20.9206 15.6543 20.9206 16.179 21.4454L18.8122 24.0784L22.8162 20.0744L26.8204 16.0703C27.3452 15.5456 28.1958 15.5456 28.7206 16.0703Z" fill="#85F26A"/>
</svg>
